# xmcd
#
# Track frame offsets:
#	150
#	14706
#	29840
#	44148
#	63315
#	78388
#	99448
#	114234
#	127580
#	147843
#
# Disc length: 2163 seconds
#
# Revision: 1
# Processed by: cddbd v1.5.2PL0 Copyright (c) Steve Scherf et al.
# Submitted via: audiograbber 1.83.01
#
DISCID=8508710a
DTITLE=King Leo and the Growing Dogs - Mad Love  - Disc #1
DYEAR=2009
DGENRE=Blues
TTITLE0=Baby Don't Wanna
TTITLE1=Hands of a Maker
TTITLE2=Gary's Not Here
TTITLE3=Honesty
TTITLE4=Don't Touch That Child
TTITLE5=I Can Taste The Love
TTITLE6=Sean Connery
TTITLE7=Down the Nui
TTITLE8=Feeling Lazy
TTITLE9=Tempted
EXTD=King Leo is an American blues musician based in Dunedin, New Zealand.\n\nL
EXTD=eo LaDell (aka King Leo) has been playing Blues professionally for 20 year
EXTD=s. His experience has seen him working with such Blues luminaries as Pinet
EXTD=op Perkins, Big Bill Morganfield, and Bo Diddley.\n\nMad Love is the doubl
EXTD=e album from his band the Growling Dogs. The first disc consists of origin
EXTD=al material, while the second is a collecion of blues standards.
EXTT0=
EXTT1=
EXTT2=
EXTT3=
EXTT4=
EXTT5=
EXTT6=
EXTT7=
EXTT8=
EXTT9=
PLAYORDER=
